<svg viewBox="0 0 382 382" xmlns="http://www.w3.org/2000/svg" fill-rule="evenodd" clip-rule="evenodd" stroke-linejoin="round" stroke-miterlimit="1.414"><path d="M375.037 202.111l-.163-5.149-12.823.406 1.05-1.163c2.241-2.61 3.212-5.255 3.146-8.685-.032-2.387-.594-4.51-1.634-6.414-2.341-4.294-6.113-6.864-11.276-7.518a13.719 13.719 0 00-4.951.286c-5.669 1.384-9.344 4.911-10.881 10.415a13.379 13.379 0 00-.488 4.286c.01.312.041.623.073.934.349 3.227 1.667 5.768 3.48 7.292l.738.557.769.503-4.267.135.168 5.288 37.059-1.173zm-14.062-13.595a9.07 9.07 0 01-.218 1.61 9.216 9.216 0 01-3.845 5.641c-1.833 1.23-4.042 1.806-6.102 1.645-1.996-.162-4.014-1.045-5.587-2.48-1.729-1.581-2.799-3.795-2.983-6.21a9.462 9.462 0 01.338-3.26c1.027-3.572 3.915-6.138 7.64-6.73a9.036 9.036 0 011.869-.112c.549.025 1.1.105 1.632.228 3.75.881 6.5 3.817 7.14 7.692.106.653.149 1.308.116 1.976zm-25.779-21.04l36.508-7.232-1.045-5.275-36.508 7.233 1.045 5.274zm26.832-21.44l5.844-1.699-1.489-5.121-5.844 1.699 1.489 5.121zm-29.876 8.597l27.167-7.899-1.501-5.163-27.167 7.899 1.501 5.163zm7.917-43.962l11.687-5.719-2.344-4.791-33.265 16.279 2.326 4.752 3.757-1.838c-.098.215-.201.421-.284.642-1.351 3.258-1.453 5.619-.245 8.943.155.439.339.864.547 1.289a14.32 14.32 0 001.57 2.475c4.282 5.519 11.227 7.089 17.549 4.007l1.372-.719c4.745-2.634 7.185-6.773 7.212-12.197.018-2.631-.568-5.002-1.624-6.988a11.84 11.84 0 00-1.896-2.603c-1.33-1.397-3.004-2.493-4.476-3.03l-.94-.282-.946-.22zm3.448 8.489c.525 1 .872 2.076 1.021 3.188.536 3.736-1.066 7.19-4.233 9.183-.464.299-.957.54-1.464.752a9.03 9.03 0 01-1.557.463c-3.734.786-7.449-.665-9.677-3.824a9.485 9.485 0 01-.962-1.744 8.682 8.682 0 01-.579-1.968c-.717-3.959.955-7.638 4.276-9.682.474-.28.966-.521 1.478-.724a9.061 9.061 0 012.188-.544c4.054-.499 7.668 1.408 9.509 4.9zm-27.983-40.419l3.523-3.565-12.858-12.705-3.273 3.312 8.75 8.646-23.621 4.567-2.592 2.623 14.403 14.233 3.401-3.442-9.477-9.365 21.744-4.304zm-24.501-15.116c1.953-3.469 2.375-5.306 2.039-8.077-.393-3.17-1.789-5.535-4.464-7.513a11.968 11.968 0 00-.521-.361c-1.859-1.226-3.966-1.805-5.938-1.698l-1.094.11-1.086.194 1.253-1.879-4.473-2.983-15.62 23.422 4.474 2.983 8.304-12.453c.287-.43.591-.847.913-1.253 3.24-4.005 6.598-4.738 10.093-2.614 1.833 1.107 2.677 2.419 2.869 4.459.122 1.309-.242 2.863-1.37 4.942-.215.4-.447.787-.698 1.163l-8.872 13.303 4.438 2.96 9.091-13.635c.234-.349.448-.71.662-1.07zm-30.699-15.701c1.263-3.477.979-7.393-1.047-11.283-1.842-3.522-4.341-5.683-7.813-6.898a15.532 15.532 0 00-.936-.292c-3.539-1.034-6.919-.803-9.904.551-3.925 1.784-6.543 4.617-7.82 8.101-.184.493-.335.988-.469 1.501-1.633 6.162.322 11.781 5.734 15.763a13.18 13.18 0 002.672 1.513c1.535.654 3.278 1.028 5.228 1.091 3.726.104 7.022-1.007 9.559-3.102l.971-.877.931-.927-5.572-2.079-.675.425-.674.392c-2.223 1.19-4.994 1.327-7.752.229a8.57 8.57 0 01-2.778-1.783c-2.143-2.039-2.894-3.995-2.873-7.189.001-.31.015-.626.04-.938l22.134 8.259.691-1.544c.123-.298.24-.611.353-.913zm-4.528-4.938l-.043.73-16.563-6.18.538-.672.566-.626c1.706-1.648 4.667-2.54 7.873-1.998a9.745 9.745 0 011.713.456c1.787.655 3.315 1.88 4.305 3.442.979 1.559 1.489 3.024 1.596 4.12l.015.728zM229.55 148.11c-2.938 0-5.801.302-8.611.76v107.267c2.81.458 5.673.76 8.611.76 10.588 0 20.433-3.134 28.758-8.469v-22.016h19.534c3.509-7.224 5.534-15.318 5.534-23.909 0-1.506-.104-2.985-.223-4.46h-24.845v-20.632h18.97c-8.978-17.401-26.964-29.301-47.728-29.301zm-.154-124.51l-4.451-.824 1.649-8.914-5.286-.979-1.656 8.946-3.585-.664-.761 4.114 3.584.663-4.38 23.664 5.287.979 4.38-23.664 4.452.824.767-4.145zm-9.987 314.31c-3.516 1.111-6.196 3.184-7.922 5.97-2.268 3.667-2.866 7.478-1.988 11.083.121.512.272 1.007.446 1.507 2.072 6.029 6.824 9.609 13.537 9.905a13.192 13.192 0 003.062-.229c1.639-.312 3.295-.971 4.951-2.005 3.153-1.986 5.273-4.744 6.215-7.897l.318-1.269.257-1.288-5.785 1.374-.325.729-.342.7c-1.184 2.227-3.41 3.882-6.313 4.505a8.561 8.561 0 01-3.3.065c-2.916-.501-4.628-1.708-6.388-4.374a12.391 12.391 0 01-.489-.801l22.986-5.458-.285-1.667a28.61 28.61 0 00-.216-.955c-.885-3.591-3.3-6.687-7.149-8.791-3.491-1.901-6.77-2.305-10.33-1.382-.312.085-.623.17-.94.278zm.704 5.293a9.725 9.725 0 011.676-.575c1.849-.45 3.801-.284 5.493.464 1.681.751 2.919 1.683 3.619 2.534l.418.597.37.63-17.2 4.084.073-.857.122-.836c.5-2.318 2.463-4.707 5.429-6.041zM207.872 34.164c.017-.323.023-.656.029-.979.038-3.699-1.528-7.299-4.73-10.296-2.906-2.712-5.981-3.921-9.659-3.916-.323.005-.646.009-.979.035-3.682.199-6.795 1.538-9.161 3.806-3.111 2.984-4.641 6.526-4.69 10.236-.01.527.012 1.043.056 1.571.503 6.355 4.211 11.007 10.638 12.969.984.298 2.002.479 3.023.541 1.665.107 3.433-.117 5.294-.706 3.549-1.137 6.29-3.279 7.989-6.097l.624-1.15.571-1.183-5.946-.113-.496.625-.506.593c-1.702 1.861-4.271 2.909-7.237 2.788a8.557 8.557 0 01-3.212-.76c-2.698-1.213-4.055-2.809-5.095-5.829a12.412 12.412 0 01-.273-.898l23.621.448.139-1.685zm-5.678-3.432l-17.675-.335.284-.812.327-.779c1.062-2.121 3.559-3.945 6.764-4.497a9.772 9.772 0 011.767-.138c1.903.025 3.751.673 5.203 1.819 1.441 1.146 2.407 2.359 2.872 3.357l.256.682.202.703zm4.776 147.586c-9.611-9.042-22.461-14.615-36.628-14.615-29.727 0-53.825 24.352-53.825 54.393 0 24.897 16.572 45.839 39.163 52.297v-43.075h40.651v-28.369H155.68v-20.631h51.29zM168.389 44.735c1.413-2.399 2.094-5.406 1.803-8.768a12.907 12.907 0 00-.351-2.104 13.367 13.367 0 00-1.042-2.83c-2.35-4.729-6.018-7.422-10.476-8.186-2.027-.339-3.713-.291-5.644.142-4.006.909-6.669 3.038-7.942 5.715l-.501 1.159-.962-4.291-5.289 1.186 8.124 36.221 5.204-1.167-2.826-12.602 1.112.731 1.152.668c2.353 1.202 5.167 1.563 8.29.895 4.039-.861 7.172-3.107 9.348-6.769zm-3.408-7.137c-.136 3.866-2.418 7.055-6.046 8.42a9.238 9.238 0 01-1.904.504c-.662.094-1.336.135-2.006.097-3.996-.227-7.072-2.59-8.311-6.247a10.73 10.73 0 01-.394-1.609 10.14 10.14 0 01-.107-1.607c.043-3.888 2.263-7.108 5.896-8.551a9.217 9.217 0 011.962-.54 9.73 9.73 0 012.025-.112c3.991.207 7.167 2.624 8.41 6.346a9.78 9.78 0 01.388 1.632c.078.545.116 1.109.087 1.667zm-33.24 21.759l4.587-2.528-8.341-15.134c-.275-.499-.703-1.098-1.778-2.335-3.693-4.251-8.256-5.224-13.29-2.572-2.857 1.5-4.535 3.579-5.451 6.663l-.363 1.391a6.35 6.35 0 00-.622-.259c-2.611-1.017-4.122-1.13-6.624-.414-.443.134-.865.281-1.287.451l-1.052.519c-2.44 1.32-3.596 2.743-4.586 5.67-.085.269-.171.537-.242.809l-1.245-2.26-4.399 2.424 13.573 24.627 4.586-2.527L97.821 60.1a10.757 10.757 0 01-.509-1.058c-1.061-2.571-1.191-4.009-.765-5.398.534-1.682 1.61-3.049 2.773-3.702.814-.461 1.953-.732 3.153-.694 2.26.068 3.721.958 5.408 3.441.195.286.375.592.547.902l7.847 14.24 4.747-2.616-7.246-13.147a18.377 18.377 0 01-.344-.67c-2.488-5.16-1.503-8.675 1.74-10.143a6.091 6.091 0 011.197-.389c2.834-.629 5.054.481 7.424 4.135.159.244.303.483.443.738l7.505 13.618zm-42.68 16.845a14.218 14.218 0 00-3.076-4.582c-2.257-2.26-5.391-3.785-8.762-4.214a14.357 14.357 0 00-7.931 1.249 14.627 14.627 0 00-4.037 2.769 15.185 15.185 0 00-1.94 2.346c-2.871 4.313-3.327 9.548-1.307 14.174a14.84 14.84 0 003.092 4.551 14.38 14.38 0 002.124 1.737c5.069 3.391 11.35 3.399 16.432-.015.825-.56 1.59-1.195 2.292-1.907a14.665 14.665 0 001.85-2.284c2.765-4.222 3.207-9.289 1.263-13.824zm-6.278 11.846a9.845 9.845 0 01-1.278 1.247c-3.458 2.827-7.943 3.021-11.608.503a9 9 0 01-1.429-1.216 8.997 8.997 0 01-1.065-1.339c-2.134-3.273-2.067-7.394.24-10.708a9.72 9.72 0 011.306-1.521c.454-.413.939-.781 1.461-1.111a9.585 9.585 0 017.148-1.252c1.949.445 3.697 1.461 4.929 2.814a9.258 9.258 0 011.805 3.024c1.291 3.482.635 7.083-1.509 9.559zm-8.098 15.584l-18.782 1.929-6.034-15.563-3.457 5.32 5.886 15.634-18.883-12.267-2.929 4.509 31.246 20.298 2.929-4.509-11.957-7.768 18.285-1.893 3.696-5.69zm-38.416 49.011a54.403 54.403 0 00-29.736 48.591c0 30.04 24.097 54.393 53.826 54.393 19.439 0 36.421-10.449 45.881-26.058-4.345-7.141-11.663-12.079-20.779-13.711v-.382c13.229-3.056 21.922-14.706 21.922-28.456 0-10.695-5.102-21.39-13.796-27.693-8.126-5.92-18.143-6.684-27.97-6.684H36.269zm4.305 72.672H56.26c3.591 0 8.127 0 11.529 1.719 3.78 1.91 6.236 5.92 6.236 10.313 0 3.628-1.89 7.066-4.724 9.167-3.213 2.674-7.56 2.483-11.529 2.483H40.574v-23.682zm0-46.411h15.497c7.56 0 15.498 1.337 15.498 11.077 0 3.055-1.323 6.302-3.78 8.594-2.835 2.674-7.371 2.483-11.151 2.483H40.574v-22.154zM171.471 332.05l-.235 37.034 5.291.033.026-4.182c.15.183.288.367.449.54 2.316 2.66 4.384 3.802 7.898 4.201.462.057.925.081 1.398.084a14.325 14.325 0 002.916-.304c6.848-1.376 11.346-6.897 11.401-13.929l-.033-1.549c-.246-5.421-2.866-9.449-7.711-11.888-2.347-1.187-4.731-1.719-6.979-1.658a11.871 11.871 0 00-3.176.54c-1.842.569-3.569 1.579-4.705 2.658l-.671.716-.618.749.082-13.011-5.333-.034zm5.268 23.917a10.505 10.505 0 01.011-1.645 9.036 9.036 0 01.487-2.201c1.357-3.852 4.674-6.24 8.621-6.333a9.584 9.584 0 013.309.504c3.584 1.184 5.963 4.157 6.338 7.88.061.549.057 1.097.022 1.645a9.128 9.128 0 01-.279 1.601c-.959 3.693-3.912 6.373-7.733 6.962a9.419 9.419 0 01-1.99.084 8.617 8.617 0 01-2.02-.357c-3.864-1.121-6.414-4.256-6.766-8.14zm70.273-26.107l-4.745 2.111 11.463 25.772 4.991-2.22-6.551-14.728a11.262 11.262 0 01-.225-.559c-1.482-4.284-.441-6.972 3.272-8.811.182-.093.359-.172.546-.255l-2.22-4.991c-.278.17-.55.35-.819.54-2.435 1.696-3.431 2.845-3.982 4.172l-.293.849-.209.881-1.228-2.761zm18.056-8.852l-4.509 2.929 15.336 23.608 4.509-2.929-8.154-12.553a18.17 18.17 0 01-.79-1.333c-2.397-4.559-1.743-7.934 1.59-10.304 1.742-1.247 3.281-1.503 5.23-.872 1.251.406 2.534 1.355 3.997 3.212.282.356.547.723.792 1.101l8.711 13.41 4.473-2.906-8.927-13.743a23.582 23.582 0 00-.723-1.032c-2.414-3.163-3.933-4.279-6.611-5.065-3.067-.893-5.792-.546-8.666 1.129-.186.108-.367.225-.538.336-1.861 1.222-3.226 2.93-3.907 4.783l-.332 1.049-.251 1.074-1.23-1.894zm33.191-39.074c-1.667 6.601.41 11.465 8.697 17.942.842.651 1.676 1.296 2.524 1.939.894.69 1.792 1.356 2.699 2.03l1.121.835 4.351 3.267 4.316 3.296 3.194-4.218-3.292-2.493 1.099-.044 1.095-.128c2.575-.425 5.18-1.96 7.25-4.533 1.486-1.856 2.42-3.819 2.842-5.927.982-4.895-.275-9.273-3.886-13.073a13.43 13.43 0 00-1.853-1.632 13.816 13.816 0 00-2.217-1.329c-5.185-2.469-10.22-2.073-14.824 1.05a13.468 13.468 0 00-3.586 3.597c-2.034 3.006-2.485 5.187-2.002 8.736.045.385.115.774.205 1.153-.246-.28-.47-.572-.697-.878-2.218-3.056-2.738-4.934-2.216-7.762.28-1.474.975-2.89 2.145-4.257 1.66-1.926 3.674-3.017 5.579-3.234l.869-.044.871.026 3.888-5.135a17.422 17.422 0 00-.855-.136c-5.896-.889-10.227.592-13.926 4.765-.26.289-.511.584-.738.884-1.318 1.687-2.182 3.434-2.653 5.303zm13.376 4.139c.288-.47.626-.916.998-1.335.384-.437.821-.835 1.276-1.205 3.015-2.344 6.88-2.655 10.267-.805a8.692 8.692 0 011.516 1.027 9.398 9.398 0 012.185 2.707c1.499 2.794 1.495 6.095-.065 8.974a9.516 9.516 0 01-1.078 1.585c-.37.435-.776.829-1.21 1.188a9.303 9.303 0 01-6.621 2.081c-2.042-.17-3.981-.977-5.435-2.227-1.001-.852-1.83-1.966-2.413-3.244-1.286-2.862-1.087-6.029.58-8.746zm8.599-21.181l14.974 6.66c.383.171.775.321 1.167.472 3.748 1.338 5.63 1.445 8.304.646 3.059-.923 5.155-2.698 6.652-5.669.098-.192.185-.388.268-.575.895-2.038 1.109-4.214.671-6.139l-.293-1.06-.375-1.038 2.064.918 2.185-4.913-25.723-11.441-2.185 4.913 13.677 6.083c.471.21.934.439 1.388.689 4.495 2.516 5.785 5.703 4.281 9.506-.781 1.995-1.932 3.048-3.911 3.58-1.27.342-2.863.245-5.102-.515-.43-.145-.851-.308-1.264-.492l-14.61-6.498-2.168 4.873zm12.147-29.856l27.682 5.845 1.111-5.26-15.73-3.322c-4.566-.964-6.722-3.244-6.825-7.079a6.204 6.204 0 01.16-1.538c.115-.492.293-.971.53-1.416 1.382-2.642 3.515-3.687 6.889-3.425a20.195 20.195 0 012.424.336l15.34 3.239 1.111-5.26-14.036-2.964a42.703 42.703 0 00-4.008-.638c-6.739-.774-11.028 1.892-12.707 7.813-.078.269-.145.53-.202.804-.659 3.015-.248 5.179 1.243 7.593.106.176.222.354.34.522l-2.22-.468-1.102 5.218z" fill="#231f20" fill-rule="nonzero"/></svg>